<?xml version="1.0" encoding="UTF-8"?>
<svg id="_圖層_1" data-name="圖層 1" xmlns="http://www.w3.org/2000/svg" viewBox="0 0 48 48">
  <defs>
    <style>
      .cls-1 {
        fill: #231815;
      }
    </style>
  </defs>
  <path class="cls-1" d="M7.24,24.01v11.3l12,8.08-1.23-11.99s-3.03-1.09-4.77-2.18-1.78-2.87-1.78-2.87l-4.22-2.33Z"/>
  <path class="cls-1" d="M40.7,21.2L15.97,14.48v-.76l8.03-2.18,16.71,4.54,.06-6.92L24.01,4.61v.02s-.02-.02-.02-.02L7.24,9.16h0s0,.01,0,.01v9.88h.09s14.75,4.02,14.75,4.02h0v11.76l1.98,1.44,1.93-1.44v-6.09l10.79-3.69-.34,1.92c-.17,.62-.59,1.56-1.67,2.24-1.75,1.1-4.77,2.18-4.77,2.18l-1.23,11.99,12-8.08v-11.3l-.04,.02-.03-2.84Z"/>
</svg>